<svg version="1.2" xmlns="http://www.w3.org/2000/svg" viewBox="76 165 355 170" width="355" height="170">
	<style>
		.s0 { fill: #060a0d }
	</style>
	<g>
		<path class="s0" d="m143.68 293.12c-8.74-17.68-21.92-44.34-29.3-59.23-18.85-37.99-28.47-57.67-28.47-58.15 0-0.24 16.06-0.39 37.89-0.34l37.94 0.15 32.08 64.16 32.08 64.16 8.59-15.82c13.67-25.24 17.92-33.35 17.92-34.23 0-0.49-2.59-6.2-5.76-12.7-26.42-54.05-31.84-65.23-31.84-65.53 0-0.15 16.99-0.29 37.74-0.29h37.7l1.81 3.81c6.35 13.13 61.72 124.07 62.01 124.07 0.15 0.05 2.05-3.17 4.2-7.13 2.1-4 8.06-14.89 13.18-24.32 5.13-9.38 9.47-17.43 9.62-17.87 0.24-0.68-0.2-0.88-2.78-1.17-7.52-0.83-14.55-3.71-20.51-8.45-5.86-4.69-10.5-11.72-12.7-19.38-0.93-3.27-1.12-5.03-1.07-10.99 0-6.59 0.15-7.37 1.56-11.72 7.13-21.48 29.98-32.18 51.17-23.97 5.47 2.1 9.08 4.59 13.38 9.13 4.35 4.64 6.45 8.06 8.35 13.48 4 11.67 2.93 20.75-4 34.72-4.79 9.62-13.87 26.32-31.15 57.23-4.05 7.28-9.72 17.53-12.6 22.8l-5.27 9.67h-38.67-38.67l-2.1-4.05c-1.17-2.25-6.49-13.04-11.82-23.93-5.37-10.94-10.01-19.87-10.35-19.87-0.54 0-4.44 6.88-19.97 35.55l-6.69 12.3h-38.77-38.82l-15.92-32.08z"/>
	</g>
</svg>
